<svg xmlns="http://www.w3.org/2000/svg" viewBox="0 0 500 500"><g id="freepik--background-complete--inject-127"><rect y="382.4" width="500" height="0.25" style="fill:#e0e0e0"></rect><rect x="378.65" y="390" width="26.57" height="0.25" style="fill:#e0e0e0"></rect><rect x="422.68" y="395" width="22.9" height="0.25" style="fill:#e0e0e0"></rect><rect x="230.46" y="394.26" width="16.1" height="0.25" style="fill:#e0e0e0"></rect><rect x="164.61" y="394.26" width="60.09" height="0.25" style="fill:#e0e0e0"></rect><rect x="101.44" y="392.68" width="38.23" height="0.25" style="fill:#e0e0e0"></rect><rect x="275.22" y="388.56" width="86.63" height="0.25" style="fill:#e0e0e0"></rect><rect x="64.93" y="392.56" width="25.18" height="0.25" style="fill:#e0e0e0"></rect><path d="M237,337.8H43.91a5.71,5.71,0,0,1-5.7-5.71V60.66A5.71,5.71,0,0,1,43.91,55H237a5.71,5.71,0,0,1,5.71,5.71V332.09A5.71,5.71,0,0,1,237,337.8ZM43.91,55.2a5.46,5.46,0,0,0-5.45,5.46V332.09a5.46,5.46,0,0,0,5.45,5.46H237a5.47,5.47,0,0,0,5.46-5.46V60.66A5.47,5.47,0,0,0,237,55.2Z" style="fill:#e0e0e0"></path><path d="M453.31,337.8H260.21a5.72,5.72,0,0,1-5.71-5.71V60.66A5.72,5.72,0,0,1,260.21,55h193.1A5.71,5.71,0,0,1,459,60.66V332.09A5.71,5.71,0,0,1,453.31,337.8ZM260.21,55.2a5.47,5.47,0,0,0-5.46,5.46V332.09a5.47,5.47,0,0,0,5.46,5.46h193.1a5.47,5.47,0,0,0,5.46-5.46V60.66a5.47,5.47,0,0,0-5.46-5.46Z" style="fill:#e0e0e0"></path><rect x="313.9" y="256.59" width="19.3" height="125.81" transform="translate(647.1 638.98) rotate(180)" style="fill:#ebebeb"></rect><rect x="309.27" y="288.53" width="3.32" height="59.27" transform="translate(728.95 470.35) rotate(154.35)" style="fill:#ebebeb"></rect><path d="M315.92,298.22s3.54,17.42,22.39,12.29c8.24-2.25,10-8.44,9.62-14.36,7.62,5.43,19.08,9.85,18-13.95,0,0,24.55,18.71,32.78-8.19s-13.81-29.43-13.81-29.43,31-25.61,20.42-46.6C393.89,175.37,374,187.06,374,187.06s4.11-30-18.06-28.69a11.46,11.46,0,0,0-7.41,3.35c-7.59-4-17.17,8.28-17.17,8.28s-1.91-15.08-17-9.64c-6.59,2.38-8.31,7.9-8.29,13.07-5.71-4.38-14.5-7.67-14.82,13.13,0,0-18.36-15.17-26.18,8.82s9.38,25.1,9.38,25.1-25.66,24-18.39,41.87c7.82,19.25,24,8,24,8s-3.95,22.19,8.8,24.21a11.13,11.13,0,0,0,5.13,11.6C304.17,312.12,315.92,298.22,315.92,298.22Z" style="fill:#ebebeb"></path><polygon points="430.95 259.91 430.95 382.4 73.2 382.4 73.2 259.47 227.27 238.61 430.95 259.91" style="fill:#fafafa"></polygon><polygon points="227.27 238.61 73.2 259.47 73.2 382.4 227.27 382.4 227.27 238.61" style="fill:#ebebeb"></polygon><rect x="243.46" y="288.17" width="73.48" height="94.23" transform="translate(560.39 670.57) rotate(180)" style="fill:#e0e0e0"></rect><rect x="234.67" y="303.6" width="91.05" height="66.54" transform="translate(617.07 56.68) rotate(90)" style="fill:#ebebeb"></rect><rect x="234.67" y="336.59" width="91.05" height="0.56" transform="translate(617.07 56.68) rotate(90)" style="fill:#e0e0e0"></rect><polygon points="444.81 264.37 227.31 241.63 59.43 264.36 58.62 258.42 227.22 235.59 227.58 235.63 445.44 258.41 444.81 264.37" style="fill:#e0e0e0"></polygon><path d="M429.3,121.51c5.8-12.53,1.2-21.46-13-21.46-8.89,0-19.92,3.52-30.65,9.23-1.22-3.26-4.63-5.21-10.13-5.21-9.67,0-23,6-33.46,14.55-2.53-1.9-6.19-3.06-10.9-3.25-9.26-.38-20.47,3.09-30.21,8.73a6,6,0,0,0-4.29-1.62c-5.34-.22-12.56,3.28-16.15,7.81l-.62.83h156.6C441.45,126.68,436,121.73,429.3,121.51Z" style="fill:#fafafa"></path><path d="M208.76,88a11.71,11.71,0,0,0-1.19-.06c.37-4.1-1.75-6.72-6.29-6.72-3.27,0-7.29,1.37-11.38,3.68,1.17-8-2.58-13.13-11.07-13.13-6.86,0-15.53,3.37-24.1,8.85-.75-3.12-3.27-5-7.51-5-7.45,0-18,5.78-26.53,13.94h0c-1.84-1.82-4.59-3-8.21-3.13-7.1-.36-15.91,3-23.72,8.37a3.84,3.84,0,0,0-3.22-1.56c-3.88-.2-9.23,2.79-12.33,6.78H215C218.33,94,215.68,88.7,208.76,88Z" style="fill:#fafafa"></path><path d="M65,382.4H49.79s-9.37-8.33-12.42-19.5c-1.4-5.14,5.51-8.7,9.69-5C56.86,366.49,65,382.4,65,382.4Z" style="fill:#fafafa"></path><path d="M71.42,382.4H56.2s-8.71-17.88-5.34-30.9a5.82,5.82,0,0,1,10-2.46C72.34,361.71,71.42,382.4,71.42,382.4Z" style="fill:#fafafa"></path><path d="M71.44,382.4h9.83s6.16-10.87,12-24.22c5.4-12.46-3.8-17.66-9.58-5.42C76.29,368.33,71.44,382.4,71.44,382.4Z" style="fill:#fafafa"></path><path d="M74.13,382.4H89.35s15.33-7.25,14.47-21c-.22-3.59-4.33-5.93-8-4.53C79.52,363.15,74.13,382.4,74.13,382.4Z" style="fill:#fafafa"></path><path d="M65.58,382.4H80.81S85.41,357,80,341c-1.63-4.78-7.42-5.62-10.09-1.46C59.94,355,65.58,382.4,65.58,382.4Z" style="fill:#fafafa"></path><rect x="110.2" y="272.72" width="80.07" height="82.11" style="fill:#e0e0e0"></rect><rect x="113.4" y="277.5" width="73.66" height="72.55" transform="translate(464.01 163.55) rotate(90)" style="fill:#fafafa"></rect><rect x="111.75" y="310.94" width="76.96" height="5.67" style="fill:#e0e0e0"></rect><rect x="110.67" y="310.94" width="79.13" height="5.67" transform="translate(464.01 163.55) rotate(90)" style="fill:#e0e0e0"></rect><polyline points="430.95 354.83 340.15 354.83 340.15 274.21 430.95 274.21" style="fill:#e0e0e0"></polyline><rect x="351.24" y="270.97" width="72.32" height="87.11" transform="translate(701.92 -72.87) rotate(90)" style="fill:#fafafa"></rect><circle cx="280.19" cy="266.71" r="11.12" transform="translate(-44 477.77) rotate(-76.65)" style="fill:#fff"></circle><rect x="172.66" y="379.56" width="158.83" height="2.85" style="fill:#e0e0e0"></rect></g><g id="freepik--Shadow--inject-127"><ellipse cx="250" cy="416.24" rx="193.89" ry="11.32" style="fill:#f5f5f5"></ellipse></g><g id="freepik--Character--inject-127"><path d="M158.6,173c-.17,2.85-.5,5.47-.87,8.18s-.88,5.36-1.45,8A89.24,89.24,0,0,1,151.46,205l-.86,1.92-.22.48-.11.24c0,.08-.06.14-.14.31a8.3,8.3,0,0,1-1.13,1.69,6.49,6.49,0,0,1-4.11,2.18,8.37,8.37,0,0,1-3.52-.37,16.82,16.82,0,0,1-4.45-2.3,37.58,37.58,0,0,1-3.38-2.73,77.7,77.7,0,0,1-10.7-12.33l3.32-2.81c1.85,1.74,3.79,3.5,5.72,5.18s3.92,3.28,5.91,4.71a32.58,32.58,0,0,0,3,1.92,10.17,10.17,0,0,0,2.63,1.11c.31.06.51,0,.37,0a1.23,1.23,0,0,0-.73.34c-.07.06-.08.07-.07,0l.3-.79.65-1.72a100.76,100.76,0,0,0,3.82-14.54c.5-2.48.85-5,1.23-7.52s.64-5.1.86-7.49Z" style="fill:#eec1bb"></path><path d="M152.63,162.56c-3.54.9-6,15.45-6,15.45l9.74,6.63S165.7,170,163,166.07,157.78,161.25,152.63,162.56Z" style="fill:#559BF8"></path><path d="M152.63,162.56c-3.54.9-6,15.45-6,15.45l9.74,6.63S165.7,170,163,166.07,157.78,161.25,152.63,162.56Z" style="opacity:0.30000000000000004"></path><polygon points="152.94 165.81 150.23 180.48 155.7 184.19 152.94 165.81" style="fill:#559BF8"></polygon><polygon points="152.94 165.81 150.23 180.48 155.7 184.19 152.94 165.81" style="opacity:0.5"></polygon><path d="M126.26,190.71l-4.64-7.32L119,191.71s3.8,4,7.24,3Z" style="fill:#eec1bb"></path><polygon points="114.83 180.97 113 188.05 118.99 191.71 121.62 183.39 114.83 180.97" style="fill:#eec1bb"></polygon><polygon points="171.76 407.48 163.18 407.48 162.6 387.61 171.18 387.61 171.76 407.48" style="fill:#eec1bb"></polygon><polygon points="247.46 367.63 240.92 373.18 225.96 359.82 232.5 354.27 247.46 367.63" style="fill:#eec1bb"></polygon><path d="M239.13,372.52l6.34-7.26a.67.67,0,0,1,.89-.13l6.47,4.19a1.37,1.37,0,0,1,.24,2c-2.25,2.49-3.46,3.58-6.25,6.77-1.72,2-4,5-6.39,7.72s-5.18.52-4.43-.82c3.33-6,2.53-8.13,2.58-11.09A2.26,2.26,0,0,1,239.13,372.52Z" style="fill:#263238"></path><path d="M162.88,406.48h9.64a.69.69,0,0,1,.69.59l1.09,7.63a1.36,1.36,0,0,1-1.37,1.52c-3.36-.06-5-.25-9.22-.25-2.61,0-8,.27-11.6.27s-3.8-3.56-2.3-3.89c6.73-1.44,9.37-3.44,11.64-5.34A2.26,2.26,0,0,1,162.88,406.48Z" style="fill:#263238"></path><polygon points="162.6 387.62 162.9 397.86 171.48 397.86 171.19 387.62 162.6 387.62" style="fill:#db9792"></polygon><polygon points="232.5 354.27 225.96 359.83 233.68 366.71 240.22 361.15 232.5 354.27" style="fill:#db9792"></polygon><path d="M158.78,123.83c5.79-8.61,19.67-11.47,28.31-3.75,11,9.83,4.33,29.1,21.24,24s32.75-3.88,32.84,4.87,10.42-2.36,22.58,6.62c24.62,18.17,5.79,64.9-15.86,47.05-14.2-11.7-19.17-16.72-26.25-7.8s-32.29,4.71-34.55-6.54S168.75,182.5,160,172.67,146.43,142.18,158.78,123.83Z" style="fill:#263238"></path><path d="M152.63,162.56s-4.09,1.44,4.1,51.78h34.84c-.59-14.18-.6-22.92,6.18-52a103.63,103.63,0,0,0-14.8-1.94,109.79,109.79,0,0,0-15.82,0C160.33,161,152.63,162.56,152.63,162.56Z" style="fill:#559BF8"></path><path d="M152.63,162.56s-4.09,1.44,4.1,51.78h34.84c-.59-14.18-.6-22.92,6.18-52a103.63,103.63,0,0,0-14.8-1.94,109.79,109.79,0,0,0-15.82,0C160.33,161,152.63,162.56,152.63,162.56Z" style="opacity:0.30000000000000004"></path><path d="M181.38,142.55c-1,5.09-2,14.42,1.57,17.82,0,0-1.39,5.16-10.85,5.16-10.4,0-5-5.16-5-5.16,5.67-1.36,5.53-5.57,4.54-9.53Z" style="fill:#eec1bb"></path><path d="M177.42,145.93l-5.75,4.91a15.33,15.33,0,0,1,.49,2.81c2.17-.32,5.15-2.7,5.38-5A7.62,7.62,0,0,0,177.42,145.93Z" style="fill:#db9792"></path><path d="M186.75,133.21c-2,8.28-2.66,11.83-7.65,15.37-7.5,5.34-17.23,1.07-17.75-7.63-.47-7.84,2.88-20.06,11.66-21.94A11.61,11.61,0,0,1,186.75,133.21Z" style="fill:#eec1bb"></path><path d="M156.73,214.34s-6.77,66.09-6.21,92.25c.59,27.22,10.56,89.28,10.56,89.28h11.6s-1.84-60.47-.81-87.2c1.12-29.13,10.37-94.33,10.37-94.33Z" style="fill:#559BF8"></path><path d="M156.73,214.34s-6.77,66.09-6.21,92.25c.59,27.22,10.56,89.28,10.56,89.28h11.6s-1.84-60.47-.81-87.2c1.12-29.13,10.37-94.33,10.37-94.33Z" style="opacity:0.5"></path><polygon points="173.68 396.29 160.07 396.29 159.07 391.95 174.32 391.42 173.68 396.29" style="fill:#559BF8"></polygon><polygon points="173.68 396.29 160.07 396.29 159.07 391.95 174.32 391.42 173.68 396.29" style="fill:#fff;opacity:0.30000000000000004"></polygon><path d="M171.75,230.79c-8.55,17.21-1.71,48.62,1.31,60.3,1.56-17.54,4.17-39,6.21-54.75C178,227.43,175.7,222.85,171.75,230.79Z" style="fill:#559BF8"></path><path d="M171.75,230.79c-8.55,17.21-1.71,48.62,1.31,60.3,1.56-17.54,4.17-39,6.21-54.75C178,227.43,175.7,222.85,171.75,230.79Z" style="opacity:0.6000000000000001"></path><path d="M165.93,214.34s7.89,68.71,13.85,90.77c7.08,26.19,51,61.43,51,61.43l8.91-7.57s-31.86-38.29-37.27-52.08c-11.55-29.45-1.66-73.33-10.89-92.55Z" style="fill:#559BF8"></path><path d="M165.93,214.34s7.89,68.71,13.85,90.77c7.08,26.19,51,61.43,51,61.43l8.91-7.57s-31.86-38.29-37.27-52.08c-11.55-29.45-1.66-73.33-10.89-92.55Z" style="opacity:0.5"></path><polygon points="241.16 358.56 230.09 367.96 225.96 365.48 238.47 353.84 241.16 358.56" style="fill:#559BF8"></polygon><polygon points="241.16 358.56 230.09 367.96 225.96 365.48 238.47 353.84 241.16 358.56" style="fill:#fff;opacity:0.30000000000000004"></polygon><ellipse cx="172.84" cy="133.16" rx="1.25" ry="0.82" transform="translate(11.57 280.12) rotate(-79.96)" style="fill:#263238"></ellipse><path d="M165.94,131.94c-.12.68-.58,1.17-1,1.09s-.71-.7-.59-1.38.58-1.17,1-1.09S166.06,131.26,165.94,131.94Z" style="fill:#263238"></path><path d="M165.54,130.63l-1.55-.76S164.6,131.3,165.54,130.63Z" style="fill:#263238"></path><path d="M167.77,133.47a18.61,18.61,0,0,1-3.2,3.92,3,3,0,0,0,2.35.88Z" style="fill:#d4827d"></path><path d="M170,141.49a6,6,0,0,1-1.16-.11.2.2,0,0,1-.16-.23.21.21,0,0,1,.23-.17,5.51,5.51,0,0,0,4.78-1.33.2.2,0,0,1,.28,0,.2.2,0,0,1,0,.29A5.65,5.65,0,0,1,170,141.49Z" style="fill:#263238"></path><path d="M173.35,118.31c-3.83,2.2,5.62,23,12.53,20.08s4.67-14.53,1.25-17.45S178.66,115.27,173.35,118.31Z" style="fill:#263238"></path><path d="M171.2,117.33s-4.61.67-7.69,6.42,14.62-5.62,12.12-6.42A7,7,0,0,0,171.2,117.33Z" style="fill:#263238"></path><path d="M187.1,139.45a6.17,6.17,0,0,1-3.37,3.35c-2,.82-3.27-.93-2.91-3,.33-1.83,1.77-4.46,3.9-4.41A2.79,2.79,0,0,1,187.1,139.45Z" style="fill:#eec1bb"></path><path d="M175.75,128.82a.42.42,0,0,1-.29-.12,3.2,3.2,0,0,0-2.74-1.06.41.41,0,0,1-.47-.33.4.4,0,0,1,.32-.47,4,4,0,0,1,3.48,1.3.41.41,0,0,1,0,.57A.38.38,0,0,1,175.75,128.82Z" style="fill:#263238"></path><path d="M163.14,127.78a.39.39,0,0,1-.28-.12.41.41,0,0,1,0-.57,4,4,0,0,1,3.48-1.29.41.41,0,0,1-.15.8,3.23,3.23,0,0,0-2.74,1.05A.43.43,0,0,1,163.14,127.78Z" style="fill:#263238"></path><path d="M201.51,171.48a135.51,135.51,0,0,1,4.87,14,96.52,96.52,0,0,1,3.17,14.71c.13,1.29.28,2.56.32,3.9l0,1a7,7,0,0,1-.15,2,5.59,5.59,0,0,1-.65,1.56,5.08,5.08,0,0,1-1.31,1.42,5.43,5.43,0,0,1-2.71,1,7.16,7.16,0,0,1-1.78-.05,10.2,10.2,0,0,1-1.32-.27,18.37,18.37,0,0,1-2.14-.74,33,33,0,0,1-3.57-1.78,82,82,0,0,1-12.11-8.69l2.46-3.59c4.21,2.13,8.49,4.35,12.68,6.06,1,.43,2.09.8,3.05,1.09a11,11,0,0,0,1.31.31,2.82,2.82,0,0,0,.46,0c.1,0,.15,0,0,0a1.92,1.92,0,0,0-1,.41,2.78,2.78,0,0,0-1,1.49c-.1.33-.06.61-.1.17l-.09-.81c-.09-1.07-.29-2.17-.47-3.27-.4-2.22-.88-4.45-1.49-6.68s-1.22-4.47-1.91-6.7c-1.43-4.43-3-8.95-4.64-13.23Z" style="fill:#eec1bb"></path><path d="M197.75,162.31c3.49,1.07,7.68,13.09,7.68,13.09l-13.54,9.68s-4.94-10-3.48-14.55C189.94,165.83,193.76,161.1,197.75,162.31Z" style="fill:#559BF8"></path><path d="M197.75,162.31c3.49,1.07,7.68,13.09,7.68,13.09l-13.54,9.68s-4.94-10-3.48-14.55C189.94,165.83,193.76,161.1,197.75,162.31Z" style="opacity:0.30000000000000004"></path><path d="M236.79,376.66a1.19,1.19,0,0,1-.91-.47.68.68,0,0,1-.16-.68c.31-1.05,3.29-1.9,3.63-2a.21.21,0,0,1,.21.07.2.2,0,0,1,0,.22c-.54,1-1.59,2.73-2.68,2.85Zm2.2-2.61c-1.18.37-2.72,1-2.88,1.58a.26.26,0,0,0,.08.3.77.77,0,0,0,.68.32C237.45,376.18,238.23,375.37,239,374.05Z" style="fill:#559BF8"></path><path d="M238.05,374.08a3.58,3.58,0,0,1-2.49-.69.72.72,0,0,1,0-.89,1,1,0,0,1,.77-.47c1.23-.17,3.1,1.46,3.18,1.53a.22.22,0,0,1,.07.19.21.21,0,0,1-.14.15A4.81,4.81,0,0,1,238.05,374.08Zm-1.51-1.66h-.13a.69.69,0,0,0-.49.3c-.14.21-.09.33,0,.41.36.48,2.05.66,3.08.47A5.13,5.13,0,0,0,236.54,372.42Z" style="fill:#559BF8"></path><path d="M159.66,408a3.26,3.26,0,0,1-2.08-.52,1.16,1.16,0,0,1-.37-1,.65.65,0,0,1,.35-.54c1.05-.58,4.47,1.17,4.86,1.37a.19.19,0,0,1,.1.21.2.2,0,0,1-.16.17A15,15,0,0,1,159.66,408Zm-1.53-1.77a.86.86,0,0,0-.38.07.27.27,0,0,0-.13.22.71.71,0,0,0,.23.65c.52.47,1.93.55,3.84.24A11,11,0,0,0,158.13,406.21Z" style="fill:#559BF8"></path><path d="M162.32,407.68a.11.11,0,0,1-.08,0c-1-.46-3.05-2.31-2.89-3.28,0-.23.2-.52.76-.57a1.43,1.43,0,0,1,1.13.35c1.08.89,1.28,3.2,1.28,3.3a.18.18,0,0,1-.08.18A.19.19,0,0,1,162.32,407.68Zm-2-3.48h-.12c-.38,0-.4.19-.41.23-.09.59,1.28,2,2.32,2.68a4.68,4.68,0,0,0-1.09-2.65A1,1,0,0,0,160.28,404.2Z" style="fill:#559BF8"></path><path d="M192.09,212.3l.89,3.12c.12.24-.16.49-.57.49H156.55c-.31,0-.57-.16-.59-.35l-.32-3.12c0-.22.25-.4.6-.4h35.28A.63.63,0,0,1,192.09,212.3Z" style="fill:#559BF8"></path><path d="M192.09,212.3l.89,3.12c.12.24-.16.49-.57.49H156.55c-.31,0-.57-.16-.59-.35l-.32-3.12c0-.22.25-.4.6-.4h35.28A.63.63,0,0,1,192.09,212.3Z" style="fill:#fff;opacity:0.6000000000000001"></path><path d="M187.35,216.24h1c.18,0,.33-.09.32-.21l-.45-4.05c0-.12-.18-.22-.36-.22h-.95c-.19,0-.33.1-.32.22L187,216C187,216.15,187.16,216.24,187.35,216.24Z" style="fill:#559BF8"></path><path d="M187.35,216.24h1c.18,0,.33-.09.32-.21l-.45-4.05c0-.12-.18-.22-.36-.22h-.95c-.19,0-.33.1-.32.22L187,216C187,216.15,187.16,216.24,187.35,216.24Z" style="opacity:0.5"></path><path d="M159.21,216.24h.94c.19,0,.34-.09.32-.21L160,212c0-.12-.18-.22-.37-.22h-.94c-.19,0-.33.1-.32.22l.44,4.05C158.86,216.15,159,216.24,159.21,216.24Z" style="fill:#559BF8"></path><path d="M159.21,216.24h.94c.19,0,.34-.09.32-.21L160,212c0-.12-.18-.22-.37-.22h-.94c-.19,0-.33.1-.32.22l.44,4.05C158.86,216.15,159,216.24,159.21,216.24Z" style="opacity:0.5"></path><path d="M173.28,216.24h.95c.18,0,.33-.09.31-.21L174.1,212c0-.12-.18-.22-.37-.22h-.94c-.19,0-.33.1-.32.22l.44,4.05C172.93,216.15,173.09,216.24,173.28,216.24Z" style="fill:#559BF8"></path><path d="M173.28,216.24h.95c.18,0,.33-.09.31-.21L174.1,212c0-.12-.18-.22-.37-.22h-.94c-.19,0-.33.1-.32.22l.44,4.05C172.93,216.15,173.09,216.24,173.28,216.24Z" style="opacity:0.5"></path><path d="M187.77,196.87l-2.88-8.81-4.6,7.42s2.71,4.8,6.27,4.73Z" style="fill:#eec1bb"></path><path d="M181.83,178l-2.26,29.24a2.89,2.89,0,0,1-3.1,2.65l-55.66-4.29a2.9,2.9,0,0,1-2.66-3.1l2.26-29.24a2.87,2.87,0,0,1,1.08-2,2.93,2.93,0,0,1,2-.63l55.66,4.3a2.89,2.89,0,0,1,2.66,3.1Z" style="fill:#559BF8"></path><path d="M181.83,178l-2.26,29.24a2.89,2.89,0,0,1-3.1,2.65l-55.66-4.29a2.9,2.9,0,0,1-2.66-3.1l2.26-29.24a2.87,2.87,0,0,1,1.08-2,2.93,2.93,0,0,1,2-.63l55.66,4.3a2.89,2.89,0,0,1,2.66,3.1Z" style="fill:#fff;opacity:0.8"></path><path d="M181.07,175.78l-23.84,16.31A11.77,11.77,0,0,1,142.55,191l-21.06-19.77a2.93,2.93,0,0,1,2-.63l55.66,4.3A2.94,2.94,0,0,1,181.07,175.78Z" style="fill:#559BF8"></path><path d="M181.07,175.78l-23.84,16.31A11.77,11.77,0,0,1,142.55,191l-21.06-19.77a2.93,2.93,0,0,1,2-.63l55.66,4.3A2.94,2.94,0,0,1,181.07,175.78Z" style="fill:#fff;opacity:0.6000000000000001"></path><polygon points="178.9 184.05 175.39 190.46 181.07 196.65 184.89 188.06 178.9 184.05" style="fill:#eec1bb"></polygon><path d="M173.25,132l-1.56-.76S172.31,132.66,173.25,132Z" style="fill:#263238"></path></g><g id="freepik--Mailbox--inject-127"><rect x="321.03" y="250" width="12.26" height="166.24" style="fill:#559BF8"></rect><rect x="321.03" y="250" width="12.26" height="166.24" style="fill:#fff;opacity:0.6000000000000001"></rect><polygon points="321.03 250 333.29 250 333.29 262.26 321.03 257.75 321.03 250" style="fill:#559BF8"></polygon><polygon points="321.03 250 333.29 250 333.29 262.26 321.03 257.75 321.03 250" style="fill:#fff;opacity:0.4"></polygon><path d="M307.8,210.12a29.34,29.34,0,1,0-58.67,0V250H307.8Z" style="fill:#559BF8"></path><path d="M307.8,210.12a29.34,29.34,0,1,0-58.67,0V250H307.8Z" style="opacity:0.30000000000000004"></path><path d="M243.57,267.11c-3.92,16.2,6,29.33,22.24,29.33s32.51-13.13,36.43-29.33l4.08-16.87a1.54,1.54,0,0,0-1.5-1.91H249.33a1.55,1.55,0,0,0-1.5,1.19Z" style="fill:#559BF8"></path><path d="M243.57,267.11c-3.92,16.2,6,29.33,22.24,29.33s32.51-13.13,36.43-29.33l4.08-16.87a1.54,1.54,0,0,0-1.5-1.91H249.33a1.55,1.55,0,0,0-1.5,1.19Z" style="fill:#fff;opacity:0.4"></path><path d="M241.21,267.11c-3.92,16.2,6,29.33,22.24,29.33s32.51-13.13,36.43-29.33L304,250.24a1.54,1.54,0,0,0-1.5-1.91H247a1.55,1.55,0,0,0-1.5,1.19Z" style="fill:#559BF8"></path><path d="M241.21,267.11c-3.92,16.2,6,29.33,22.24,29.33s32.51-13.13,36.43-29.33L304,250.24a1.54,1.54,0,0,0-1.5-1.91H247a1.55,1.55,0,0,0-1.5,1.19Z" style="fill:#fff;opacity:0.5"></path><path d="M376.84,210.11V250h-69V210.11a29.34,29.34,0,0,0-29.33-29.33h69.05a29.34,29.34,0,0,1,29.33,29.33Z" style="fill:#559BF8"></path><path d="M376.84,210.11V250h-69V210.11a29.34,29.34,0,0,0-29.33-29.33h69.05a29.34,29.34,0,0,1,29.33,29.33Z" style="fill:#fff;opacity:0.5"></path><path d="M376.84,210.11v10.67h-69V210.11a29.13,29.13,0,0,0-6.18-18h69.05A29.13,29.13,0,0,1,376.84,210.11Z" style="fill:#559BF8"></path><path d="M376.84,210.11v10.67h-69V210.11a29.13,29.13,0,0,0-6.18-18h69.05A29.13,29.13,0,0,1,376.84,210.11Z" style="fill:#fff;opacity:0.7000000000000001"></path><path d="M317.41,225.92v-59a3.62,3.62,0,0,1,4.21-3.58l14.14,2.34a2.16,2.16,0,0,1,1.81,2.14v3.66a2.17,2.17,0,0,1-2.17,2.17H321.91v52.25a2.25,2.25,0,0,1-2.25,2.25h0A2.25,2.25,0,0,1,317.41,225.92Z" style="fill:#559BF8"></path><path d="M317.41,225.92v-59a3.62,3.62,0,0,1,4.21-3.58l14.14,2.34a2.16,2.16,0,0,1,1.81,2.14v3.66a2.17,2.17,0,0,1-2.17,2.17H321.91v52.25a2.25,2.25,0,0,1-2.25,2.25h0A2.25,2.25,0,0,1,317.41,225.92Z" style="opacity:0.30000000000000004"></path><path d="M278.46,188.57v29.32a2.9,2.9,0,0,1-2.88,2.89H219.75a2.9,2.9,0,0,1-2.88-2.89V188.57a2.9,2.9,0,0,1,2.88-2.89h55.83a2.9,2.9,0,0,1,2.88,2.89Z" style="fill:#559BF8"></path><path d="M278.46,188.57v29.32a2.9,2.9,0,0,1-2.88,2.89H219.75a2.9,2.9,0,0,1-2.88-2.89V188.57a2.9,2.9,0,0,1,2.88-2.89h55.83a2.9,2.9,0,0,1,2.88,2.89Z" style="fill:#fff;opacity:0.8"></path><path d="M277.54,186.46,255,204.55a11.78,11.78,0,0,1-14.73,0l-22.51-18.09a2.89,2.89,0,0,1,2-.78h55.83A2.89,2.89,0,0,1,277.54,186.46Z" style="fill:#559BF8"></path><path d="M277.54,186.46,255,204.55a11.78,11.78,0,0,1-14.73,0l-22.51-18.09a2.89,2.89,0,0,1,2-.78h55.83A2.89,2.89,0,0,1,277.54,186.46Z" style="fill:#fff;opacity:0.6000000000000001"></path><path d="M235.68,232.6v29.33a2.89,2.89,0,0,1-2.88,2.89H177a2.9,2.9,0,0,1-2.88-2.89V232.6a2.88,2.88,0,0,1,2.88-2.88H232.8a2.88,2.88,0,0,1,2.88,2.88Z" style="fill:#559BF8"></path><path d="M235.68,232.6v29.33a2.89,2.89,0,0,1-2.88,2.89H177a2.9,2.9,0,0,1-2.88-2.89V232.6a2.88,2.88,0,0,1,2.88-2.88H232.8a2.88,2.88,0,0,1,2.88,2.88Z" style="fill:#fff;opacity:0.8"></path><path d="M234.76,230.49l-22.51,18.09a11.75,11.75,0,0,1-14.73,0L175,230.49a2.88,2.88,0,0,1,2-.77H232.8A2.85,2.85,0,0,1,234.76,230.49Z" style="fill:#559BF8"></path><path d="M234.76,230.49l-22.51,18.09a11.75,11.75,0,0,1-14.73,0L175,230.49a2.88,2.88,0,0,1,2-.77H232.8A2.85,2.85,0,0,1,234.76,230.49Z" style="fill:#fff;opacity:0.6000000000000001"></path><path d="M307.8,210.62v35.1H286.94a2.9,2.9,0,0,1-2.89-2.89V213.51a2.91,2.91,0,0,1,2.89-2.89Z" style="fill:#559BF8"></path><path d="M307.8,210.62v35.1H286.94a2.9,2.9,0,0,1-2.89-2.89V213.51a2.91,2.91,0,0,1,2.89-2.89Z" style="fill:#fff;opacity:0.8"></path><path d="M307.8,210.62v19.1a3.55,3.55,0,0,1-.31-.23L285,211.4a2.85,2.85,0,0,1,2-.78Z" style="fill:#559BF8"></path><path d="M307.8,210.62v19.1a3.55,3.55,0,0,1-.31-.23L285,211.4a2.85,2.85,0,0,1,2-.78Z" style="fill:#fff;opacity:0.6000000000000001"></path><rect x="303.22" y="210.62" width="4.57" height="35.1" style="fill:#559BF8;opacity:0.5"></rect></g></svg>