<?xml version="1.0"?>
<svg xmlns="http://www.w3.org/2000/svg" xmlns:xlink="http://www.w3.org/1999/xlink" version="1.1" id="Capa_1" x="0px" y="0px" viewBox="0 0 512 512" style="enable-background:new 0 0 512 512;" xml:space="preserve" width="512px" height="512px"><g><g>
	<g>
		<path d="M426.385,0H305.139c-4.145,0-7.503,3.358-7.503,7.503c0,4.145,3.358,7.503,7.503,7.503h118.757v460.996l-36.352,20.628    l-37.679-21.381c-3.809-2.161-8.542-2.16-12.356,0.001l-37.671,21.38l-37.674-21.381c-3.813-2.162-8.545-2.161-12.355,0.001    l-37.671,21.379l-37.668-21.378c-3.812-2.162-8.547-2.164-12.359,0l-37.664,21.378l-36.344-20.627v-32.798    c0-4.145-3.359-7.503-7.503-7.503c-4.144,0-7.503,3.358-7.503,7.503v34.246c0,4.495,2.429,8.667,6.339,10.887l38.833,22.039    c3.813,2.163,8.548,2.163,12.358,0l37.664-21.378l37.669,21.378c1.906,1.081,4.044,1.623,6.18,1.623s4.273-0.541,6.178-1.623    l37.671-21.379l37.675,21.381c3.812,2.162,8.545,2.162,12.356-0.001l37.671-21.38l37.679,21.381c3.81,2.16,8.543,2.162,12.354,0    l38.843-22.042c3.909-2.22,6.338-6.391,6.338-10.886V12.518C438.902,5.615,433.287,0,426.385,0z" data-original="#000000" class="active-path" data-old_color="#000000" fill="#717171"/>
	</g>
</g><g>
	<g>
		<path d="M259.008,0H85.613c-6.901,0-12.516,5.615-12.516,12.518v383.886c0,4.144,3.359,7.502,7.503,7.502s7.503-3.358,7.503-7.503    V15.006h170.904c4.145,0,7.503-3.358,7.503-7.503C266.511,3.358,263.151,0,259.008,0z" data-original="#000000" class="active-path" data-old_color="#000000" fill="#717171"/>
	</g>
</g><g>
	<g>
		<path d="M178.779,214.309h-24.737c-4.144,0-7.503,3.358-7.503,7.503s3.359,7.503,7.503,7.503h24.737    c4.144,0,7.503-3.358,7.503-7.503S182.923,214.309,178.779,214.309z" data-original="#000000" class="active-path" data-old_color="#000000" fill="#717171"/>
	</g>
</g><g>
	<g>
		<path d="M357.956,214.309H214.882c-4.144,0-7.503,3.358-7.503,7.503s3.359,7.503,7.503,7.503h143.074    c4.145,0,7.503-3.358,7.503-7.503S362.101,214.309,357.956,214.309z" data-original="#000000" class="active-path" data-old_color="#000000" fill="#717171"/>
	</g>
</g><g>
	<g>
		<path d="M178.779,256.581h-24.737c-4.144,0-7.503,3.358-7.503,7.503c0,4.145,3.359,7.503,7.503,7.503h24.737    c4.144,0,7.503-3.358,7.503-7.503C186.282,259.94,182.923,256.581,178.779,256.581z" data-original="#000000" class="active-path" data-old_color="#000000" fill="#717171"/>
	</g>
</g><g>
	<g>
		<path d="M357.956,256.581H214.882c-4.144,0-7.503,3.358-7.503,7.503c0,4.145,3.359,7.503,7.503,7.503h143.074    c4.145,0,7.503-3.358,7.503-7.503C365.459,259.94,362.101,256.581,357.956,256.581z" data-original="#000000" class="active-path" data-old_color="#000000" fill="#717171"/>
	</g>
</g><g>
	<g>
		<path d="M178.779,298.854h-24.737c-4.144,0-7.503,3.358-7.503,7.503c0,4.145,3.359,7.503,7.503,7.503h24.737    c4.144,0,7.503-3.358,7.503-7.503C186.282,302.212,182.923,298.854,178.779,298.854z" data-original="#000000" class="active-path" data-old_color="#000000" fill="#717171"/>
	</g>
</g><g>
	<g>
		<path d="M357.956,298.854H214.882c-4.144,0-7.503,3.358-7.503,7.503c0,4.145,3.359,7.503,7.503,7.503h143.074    c4.145,0,7.503-3.358,7.503-7.503C365.459,302.212,362.101,298.854,357.956,298.854z" data-original="#000000" class="active-path" data-old_color="#000000" fill="#717171"/>
	</g>
</g><g>
	<g>
		<path d="M178.779,341.127h-24.737c-4.144,0-7.503,3.358-7.503,7.503c0,4.145,3.359,7.503,7.503,7.503h24.737    c4.144,0,7.503-3.358,7.503-7.503C186.282,344.485,182.923,341.127,178.779,341.127z" data-original="#000000" class="active-path" data-old_color="#000000" fill="#717171"/>
	</g>
</g><g>
	<g>
		<path d="M357.956,341.127H214.882c-4.144,0-7.503,3.358-7.503,7.503c0,4.145,3.359,7.503,7.503,7.503h143.074    c4.145,0,7.503-3.358,7.503-7.503C365.459,344.485,362.101,341.127,357.956,341.127z" data-original="#000000" class="active-path" data-old_color="#000000" fill="#717171"/>
	</g>
</g><g>
	<g>
		<path d="M178.779,383.4h-24.737c-4.144,0-7.503,3.358-7.503,7.503c0,4.145,3.359,7.503,7.503,7.503h24.737    c4.144,0,7.503-3.358,7.503-7.503C186.282,386.759,182.923,383.4,178.779,383.4z" data-original="#000000" class="active-path" data-old_color="#000000" fill="#717171"/>
	</g>
</g><g>
	<g>
		<path d="M357.956,383.4H214.882c-4.144,0-7.503,3.358-7.503,7.503c0,4.145,3.359,7.503,7.503,7.503h143.074    c4.145,0,7.503-3.358,7.503-7.503C365.459,386.759,362.101,383.4,357.956,383.4z" data-original="#000000" class="active-path" data-old_color="#000000" fill="#717171"/>
	</g>
</g><g>
	<g>
		<path d="M348.012,102.258H246.555c-4.144,0-7.503,3.358-7.503,7.503c0,4.145,3.359,7.503,7.503,7.503h101.455    c4.145,0,7.503-3.358,7.503-7.503C355.514,105.616,352.156,102.258,348.012,102.258z" data-original="#000000" class="active-path" data-old_color="#000000" fill="#717171"/>
	</g>
</g><g>
	<g>
		<path d="M322.104,135.39h-75.549c-4.144,0-7.503,3.358-7.503,7.503c0,4.145,3.359,7.503,7.503,7.503h75.549    c4.145,0,7.503-3.358,7.503-7.503C329.607,138.748,326.249,135.39,322.104,135.39z" data-original="#000000" class="active-path" data-old_color="#000000" fill="#717171"/>
	</g>
</g><g>
	<g>
		<path d="M322.104,71.132h-75.549c-4.144,0-7.503,3.358-7.503,7.503s3.359,7.503,7.503,7.503h75.549    c4.145,0,7.503-3.358,7.503-7.503S326.249,71.132,322.104,71.132z" data-original="#000000" class="active-path" data-old_color="#000000" fill="#717171"/>
	</g>
</g><g>
	<g>
		<path d="M198.563,105.502V86.598c1.559,0.497,2.745,1.107,3.74,1.619c1.406,0.722,2.733,1.404,4.45,1.404    c4.615,0,7.449-4.71,7.449-8.086c0-6.269-8.27-9.481-15.793-10.553c-0.689-3.103-3.604-5.513-6.975-5.513    c-3.584,0-6.568,2.504-7.138,5.777c-12.011,2.239-19.034,10.292-19.034,22.202c0,15.24,10.177,20.193,18.936,23.27v24.351    c-4.127-1.014-6.003-3.186-7.472-4.889c-1.268-1.468-3.003-3.478-5.929-3.478c-4.264,0-7.449,4.214-7.449,7.981    c0,3.672,2.834,7.756,7.583,10.928c2.799,1.87,7.196,4.026,13.3,4.822c0.34,3.513,3.441,6.274,7.205,6.274    c3.864,0.001,7.128-3.166,7.128-6.916v-0.127c11.22-2.975,17.553-11.717,17.553-24.553    C216.117,114.464,205.792,108.407,198.563,105.502z M184.41,99.993c-2.931-1.699-4.039-3.663-4.039-7.076    c0-1.605,0-4.518,4.039-6.149V99.993z M198.457,138.963v-15.307c1.625,1.86,2.443,4.291,2.443,7.878    C200.9,134.931,200.135,137.348,198.457,138.963z" data-original="#000000" class="active-path" data-old_color="#000000" fill="#717171"/>
	</g>
</g></g> </svg>
